<svg width="33" height="33" viewBox="0 0 33 33" fill="none" xmlns="http://www.w3.org/2000/svg">
<g filter="url(#filter0_i_66_70)">
<path d="M6.69067 21.5449C7.57956 21.5449 8.43205 21.1918 9.06059 20.5633C9.68913 19.9347 10.0422 19.0822 10.0422 18.1934C10.0422 17.3045 9.68913 16.452 9.06059 15.8234C8.43205 15.1949 7.57956 14.8418 6.69067 14.8418C5.80178 14.8418 4.9493 15.1949 4.32076 15.8234C3.69222 16.452 3.33911 17.3045 3.33911 18.1934C3.33911 19.0822 3.69222 19.9347 4.32076 20.5633C4.9493 21.1918 5.80178 21.5449 6.69067 21.5449Z" fill="#C48874"/>
</g>
<g filter="url(#filter1_i_66_70)">
<path d="M26.2844 21.5449C27.1733 21.5449 28.0258 21.1918 28.6543 20.5633C29.2829 19.9347 29.636 19.0822 29.636 18.1934C29.636 17.3045 29.2829 16.452 28.6543 15.8234C28.0258 15.1949 27.1733 14.8418 26.2844 14.8418C25.3955 14.8418 24.5431 15.1949 23.9145 15.8234C23.286 16.452 22.9329 17.3045 22.9329 18.1934C22.9329 19.0822 23.286 19.9347 23.9145 20.5633C24.5431 21.1918 25.3955 21.5449 26.2844 21.5449Z" fill="url(#paint0_radial_66_70)"/>
</g>
<g filter="url(#filter2_f_66_70)">
<path d="M26.2845 20.2847C26.5648 20.2935 26.844 20.2459 27.1056 20.1447C27.3672 20.0435 27.6057 19.8908 27.8071 19.6956C28.0085 19.5005 28.1686 19.2668 28.278 19.0086C28.3873 18.7503 28.4437 18.4728 28.4437 18.1923C28.4437 17.9119 28.3873 17.6343 28.278 17.376C28.1686 17.1178 28.0085 16.8841 27.8071 16.689C27.6057 16.4938 27.3672 16.3411 27.1056 16.2399C26.844 16.1387 26.5648 16.0911 26.2845 16.0999C25.7375 16.1121 25.217 16.3379 24.8344 16.7291C24.4518 17.1202 24.2375 17.6457 24.2375 18.1928C24.2375 18.74 24.4518 19.2654 24.8344 19.6566C25.217 20.0478 25.7375 20.2726 26.2845 20.2847Z" fill="#E5AA8B"/>
<path d="M26.2845 20.2847C26.5648 20.2935 26.844 20.2459 27.1056 20.1447C27.3672 20.0435 27.6057 19.8908 27.8071 19.6956C28.0085 19.5005 28.1686 19.2668 28.278 19.0086C28.3873 18.7503 28.4437 18.4728 28.4437 18.1923C28.4437 17.9119 28.3873 17.6343 28.278 17.376C28.1686 17.1178 28.0085 16.8841 27.8071 16.689C27.6057 16.4938 27.3672 16.3411 27.1056 16.2399C26.844 16.1387 26.5648 16.0911 26.2845 16.0999C25.7375 16.1121 25.217 16.3379 24.8344 16.7291C24.4518 17.1202 24.2375 17.6457 24.2375 18.1928C24.2375 18.74 24.4518 19.2654 24.8344 19.6566C25.217 20.0478 25.7375 20.2726 26.2845 20.2847Z" fill="url(#paint1_radial_66_70)"/>
</g>
<g filter="url(#filter3_f_66_70)">
<path d="M6.69078 20.2847C6.97108 20.2935 7.2503 20.2459 7.51185 20.1447C7.7734 20.0435 8.01196 19.8908 8.21335 19.6956C8.41474 19.5005 8.57486 19.2668 8.68421 19.0086C8.79357 18.7503 8.84991 18.4728 8.84991 18.1923C8.84991 17.9119 8.79357 17.6343 8.68421 17.376C8.57486 17.1178 8.41474 16.8841 8.21335 16.689C8.01196 16.4938 7.7734 16.3411 7.51185 16.2399C7.2503 16.1387 6.97108 16.0911 6.69078 16.0999C6.14374 16.1121 5.6232 16.3379 5.24062 16.7291C4.85803 17.1202 4.6438 17.6457 4.6438 18.1928C4.6438 18.74 4.85803 19.2654 5.24062 19.6566C5.6232 20.0478 6.14374 20.2726 6.69078 20.2847Z" fill="url(#paint2_linear_66_70)"/>
</g>
<g filter="url(#filter4_i_66_70)">
<path d="M24.3549 21.7719L30.5424 25.9278C31.1096 26.3094 31.1508 27.1344 30.6249 27.5778L27.3352 30.4756C26.5927 31.1356 25.4274 30.8262 25.0871 29.8981L22.6946 23.2053L24.3549 21.7719Z" fill="#FFC5A3"/>
<path d="M24.3549 21.7719L30.5424 25.9278C31.1096 26.3094 31.1508 27.1344 30.6249 27.5778L27.3352 30.4756C26.5927 31.1356 25.4274 30.8262 25.0871 29.8981L22.6946 23.2053L24.3549 21.7719Z" fill="url(#paint3_linear_66_70)"/>
</g>
<g filter="url(#filter5_i_66_70)">
<path d="M8.69028 21.7719L2.50278 25.9278C1.93559 26.3094 1.89434 27.1344 2.42028 27.5778L5.70996 30.4756C6.45246 31.1356 7.61778 30.8262 7.95809 29.8981L10.3506 23.2053L8.69028 21.7719Z" fill="#E9AD91"/>
<path d="M8.69028 21.7719L2.50278 25.9278C1.93559 26.3094 1.89434 27.1344 2.42028 27.5778L5.70996 30.4756C6.45246 31.1356 7.61778 30.8262 7.95809 29.8981L10.3506 23.2053L8.69028 21.7719Z" fill="url(#paint4_radial_66_70)"/>
<path d="M8.69028 21.7719L2.50278 25.9278C1.93559 26.3094 1.89434 27.1344 2.42028 27.5778L5.70996 30.4756C6.45246 31.1356 7.61778 30.8262 7.95809 29.8981L10.3506 23.2053L8.69028 21.7719Z" fill="url(#paint5_linear_66_70)"/>
</g>
<g filter="url(#filter6_i_66_70)">
<path d="M19.4359 13.2949C15.7234 12.6679 12.6482 10.8395 11.2169 7.99121C10.8219 10.3796 9.71537 12.6659 6.75981 13.9395C6.4164 14.0869 6.07093 14.2715 6.01318 14.8748L6.21222 20.7354C6.45972 26.7765 10.9807 30.8262 16.4876 30.8262C21.9852 30.8262 26.5175 26.7765 26.764 20.7354L26.9806 14.3375C26.9864 14.2144 26.9461 14.0935 26.8675 13.9985C26.7889 13.9035 26.6777 13.8413 26.5557 13.824C25.6791 13.7074 24.5179 13.6476 23.3 13.5847C21.98 13.5166 20.594 13.4445 19.4359 13.2949Z" fill="url(#paint6_radial_66_70)"/>
<path d="M19.4359 13.2949C15.7234 12.6679 12.6482 10.8395 11.2169 7.99121C10.8219 10.3796 9.71537 12.6659 6.75981 13.9395C6.4164 14.0869 6.07093 14.2715 6.01318 14.8748L6.21222 20.7354C6.45972 26.7765 10.9807 30.8262 16.4876 30.8262C21.9852 30.8262 26.5175 26.7765 26.764 20.7354L26.9806 14.3375C26.9864 14.2144 26.9461 14.0935 26.8675 13.9985C26.7889 13.9035 26.6777 13.8413 26.5557 13.824C25.6791 13.7074 24.5179 13.6476 23.3 13.5847C21.98 13.5166 20.594 13.4445 19.4359 13.2949Z" fill="url(#paint7_radial_66_70)"/>
<path d="M19.4359 13.2949C15.7234 12.6679 12.6482 10.8395 11.2169 7.99121C10.8219 10.3796 9.71537 12.6659 6.75981 13.9395C6.4164 14.0869 6.07093 14.2715 6.01318 14.8748L6.21222 20.7354C6.45972 26.7765 10.9807 30.8262 16.4876 30.8262C21.9852 30.8262 26.5175 26.7765 26.764 20.7354L26.9806 14.3375C26.9864 14.2144 26.9461 14.0935 26.8675 13.9985C26.7889 13.9035 26.6777 13.8413 26.5557 13.824C25.6791 13.7074 24.5179 13.6476 23.3 13.5847C21.98 13.5166 20.594 13.4445 19.4359 13.2949Z" fill="url(#paint8_linear_66_70)"/>
</g>
<path d="M19.4359 13.2949C15.7234 12.6679 12.6482 10.8395 11.2169 7.99121C10.8219 10.3796 9.71537 12.6659 6.75981 13.9395C6.4164 14.0869 6.07093 14.2715 6.01318 14.8748L6.21222 20.7354C6.45972 26.7765 10.9807 30.8262 16.4876 30.8262C21.9852 30.8262 26.5175 26.7765 26.764 20.7354L26.9806 14.3375C26.9864 14.2144 26.9461 14.0935 26.8675 13.9985C26.7889 13.9035 26.6777 13.8413 26.5557 13.824C25.6791 13.7074 24.5179 13.6476 23.3 13.5847C21.98 13.5166 20.594 13.4445 19.4359 13.2949Z" fill="url(#paint9_radial_66_70)"/>
<path d="M19.4359 13.2949C15.7234 12.6679 12.6482 10.8395 11.2169 7.99121C10.8219 10.3796 9.71537 12.6659 6.75981 13.9395C6.4164 14.0869 6.07093 14.2715 6.01318 14.8748L6.21222 20.7354C6.45972 26.7765 10.9807 30.8262 16.4876 30.8262C21.9852 30.8262 26.5175 26.7765 26.764 20.7354L26.9806 14.3375C26.9864 14.2144 26.9461 14.0935 26.8675 13.9985C26.7889 13.9035 26.6777 13.8413 26.5557 13.824C25.6791 13.7074 24.5179 13.6476 23.3 13.5847C21.98 13.5166 20.594 13.4445 19.4359 13.2949Z" fill="url(#paint10_radial_66_70)"/>
<path d="M19.4359 13.2949C15.7234 12.6679 12.6482 10.8395 11.2169 7.99121C10.8219 10.3796 9.71537 12.6659 6.75981 13.9395C6.4164 14.0869 6.07093 14.2715 6.01318 14.8748L6.21222 20.7354C6.45972 26.7765 10.9807 30.8262 16.4876 30.8262C21.9852 30.8262 26.5175 26.7765 26.764 20.7354L26.9806 14.3375C26.9864 14.2144 26.9461 14.0935 26.8675 13.9985C26.7889 13.9035 26.6777 13.8413 26.5557 13.824C25.6791 13.7074 24.5179 13.6476 23.3 13.5847C21.98 13.5166 20.594 13.4445 19.4359 13.2949Z" fill="url(#paint11_radial_66_70)"/>
<path d="M16.5021 23.992C15.4195 23.9949 14.3523 23.7356 13.3918 23.2361C13.0825 23.0711 12.7535 23.4218 12.9494 23.7219C13.3306 24.3185 13.8558 24.8095 14.4767 25.1496C15.0976 25.4897 15.7941 25.668 16.5021 25.668C17.21 25.668 17.9066 25.4897 18.5275 25.1496C19.1484 24.8095 19.6736 24.3185 20.0547 23.7219C20.2404 23.4331 19.9207 23.0804 19.6113 23.2361C18.6533 23.7413 17.585 24.0011 16.5021 23.992Z" fill="#88014E"/>
<g filter="url(#filter7_i_66_70)">
<path d="M9.89893 14.4189C10.5074 14.2024 11.3117 14.0941 12.4049 14.1972" stroke="#965C2C" stroke-width="0.55" stroke-miterlimit="10" stroke-linecap="round" stroke-linejoin="round"/>
</g>
<g filter="url(#filter8_f_66_70)">
<path d="M9.89893 14.4189C10.5074 14.2024 11.3117 14.0941 12.4049 14.1972" stroke="url(#paint12_linear_66_70)" stroke-width="0.25" stroke-miterlimit="10" stroke-linecap="round" stroke-linejoin="round"/>
</g>
<g filter="url(#filter9_i_66_70)">
<path d="M23.0772 14.4385C22.4688 14.222 21.6232 14.0673 20.53 14.1704" stroke="#965C2C" stroke-width="0.55" stroke-miterlimit="10" stroke-linecap="round" stroke-linejoin="round"/>
</g>
<g filter="url(#filter10_f_66_70)">
<path d="M23.0772 14.4385C22.4688 14.222 21.6232 14.0673 20.53 14.1704" stroke="url(#paint13_linear_66_70)" stroke-width="0.25" stroke-miterlimit="10" stroke-linecap="round" stroke-linejoin="round"/>
</g>
<g filter="url(#filter11_i_66_70)">
<path d="M4.14258 11.2943C4.14258 7.27242 7.40133 4.01367 11.4232 4.01367V5.01398C11.4232 8.29336 10.9488 12.1348 6.75989 13.9395C6.4103 14.09 6.05864 14.2777 6.0112 14.9057C5.39039 15.0501 4.68089 15.3976 4.16011 15.9947C4.14841 15.8272 4.14257 15.6594 4.14258 15.4915V11.2943Z" fill="url(#paint14_radial_66_70)"/>
</g>
<path d="M4.14258 11.2943C4.14258 7.27242 7.40133 4.01367 11.4232 4.01367V5.01398C11.4232 8.29336 10.9488 12.1348 6.75989 13.9395C6.4103 14.09 6.05864 14.2777 6.0112 14.9057C5.39039 15.0501 4.68089 15.3976 4.16011 15.9947C4.14841 15.8272 4.14257 15.6594 4.14258 15.4915V11.2943Z" fill="url(#paint15_radial_66_70)"/>
<path d="M4.14258 11.2943C4.14258 7.27242 7.40133 4.01367 11.4232 4.01367V5.01398C11.4232 8.29336 10.9488 12.1348 6.75989 13.9395C6.4103 14.09 6.05864 14.2777 6.0112 14.9057C5.39039 15.0501 4.68089 15.3976 4.16011 15.9947C4.14841 15.8272 4.14257 15.6594 4.14258 15.4915V11.2943Z" fill="url(#paint16_radial_66_70)"/>
<path d="M4.14258 11.2943C4.14258 7.27242 7.40133 4.01367 11.4232 4.01367V5.01398C11.4232 8.29336 10.9488 12.1348 6.75989 13.9395C6.4103 14.09 6.05864 14.2777 6.0112 14.9057C5.39039 15.0501 4.68089 15.3976 4.16011 15.9947C4.14841 15.8272 4.14257 15.6594 4.14258 15.4915V11.2943Z" fill="url(#paint17_radial_66_70)"/>
<path d="M4.14258 11.2943C4.14258 7.27242 7.40133 4.01367 11.4232 4.01367V5.01398C11.4232 8.29336 10.9488 12.1348 6.75989 13.9395C6.4103 14.09 6.05864 14.2777 6.0112 14.9057C5.39039 15.0501 4.68089 15.3976 4.16011 15.9947C4.14841 15.8272 4.14257 15.6594 4.14258 15.4915V11.2943Z" fill="url(#paint18_radial_66_70)"/>
<g filter="url(#filter12_f_66_70)">
<path d="M17.8623 21.2138C17.8864 21.3147 17.8871 21.4197 17.8644 21.5208C17.8417 21.622 17.7962 21.7166 17.7314 21.7975C17.5428 22.0387 17.2975 22.2295 17.0174 22.3529C16.7373 22.4764 16.4309 22.5286 16.1257 22.505C15.8193 22.4791 15.5238 22.3788 15.265 22.2128C15.0062 22.0467 14.7919 21.8199 14.6407 21.5521C14.5746 21.4343 14.5444 21.2998 14.554 21.1651C14.5635 21.0304 14.6123 20.9014 14.6943 20.7941L16.0061 18.3573C16.051 18.2743 16.1191 18.2061 16.2021 18.161C16.285 18.1159 16.3792 18.0959 16.4734 18.1033C16.5675 18.1107 16.6574 18.1453 16.7322 18.2028C16.8071 18.2604 16.8636 18.3384 16.895 18.4274L17.8324 21.1148L17.8489 21.1633L17.8665 21.2149L17.8623 21.2138Z" fill="#C48577"/>
</g>
<g filter="url(#filter13_f_66_70)">
<path d="M18.2562 21.0355C18.2899 21.1422 18.299 21.2551 18.283 21.3658C18.2669 21.4766 18.226 21.5822 18.1634 21.6749C17.8024 22.2194 17.1837 22.5762 16.4928 22.5762C15.8018 22.5762 15.1831 22.2194 14.8118 21.6759C14.7298 21.5549 14.6854 21.4123 14.6841 21.2661C14.6828 21.1199 14.7247 20.9765 14.8046 20.854L16.0112 18.114C16.0522 18.0205 16.1196 17.9409 16.2051 17.885C16.2907 17.8292 16.3906 17.7994 16.4928 17.7994C16.5949 17.7994 16.6948 17.8292 16.7804 17.885C16.8659 17.9409 16.9333 18.0205 16.9744 18.114L18.2149 20.9314L18.2366 20.9829L18.2603 21.0355H18.2562Z" fill="#F1B995"/>
<path d="M18.2562 21.0355C18.2899 21.1422 18.299 21.2551 18.283 21.3658C18.2669 21.4766 18.226 21.5822 18.1634 21.6749C17.8024 22.2194 17.1837 22.5762 16.4928 22.5762C15.8018 22.5762 15.1831 22.2194 14.8118 21.6759C14.7298 21.5549 14.6854 21.4123 14.6841 21.2661C14.6828 21.1199 14.7247 20.9765 14.8046 20.854L16.0112 18.114C16.0522 18.0205 16.1196 17.9409 16.2051 17.885C16.2907 17.8292 16.3906 17.7994 16.4928 17.7994C16.5949 17.7994 16.6948 17.8292 16.7804 17.885C16.8659 17.9409 16.9333 18.0205 16.9744 18.114L18.2149 20.9314L18.2366 20.9829L18.2603 21.0355H18.2562Z" fill="url(#paint19_radial_66_70)"/>
<path d="M18.2562 21.0355C18.2899 21.1422 18.299 21.2551 18.283 21.3658C18.2669 21.4766 18.226 21.5822 18.1634 21.6749C17.8024 22.2194 17.1837 22.5762 16.4928 22.5762C15.8018 22.5762 15.1831 22.2194 14.8118 21.6759C14.7298 21.5549 14.6854 21.4123 14.6841 21.2661C14.6828 21.1199 14.7247 20.9765 14.8046 20.854L16.0112 18.114C16.0522 18.0205 16.1196 17.9409 16.2051 17.885C16.2907 17.8292 16.3906 17.7994 16.4928 17.7994C16.5949 17.7994 16.6948 17.8292 16.7804 17.885C16.8659 17.9409 16.9333 18.0205 16.9744 18.114L18.2149 20.9314L18.2366 20.9829L18.2603 21.0355H18.2562Z" fill="url(#paint20_linear_66_70)"/>
<path d="M18.2562 21.0355C18.2899 21.1422 18.299 21.2551 18.283 21.3658C18.2669 21.4766 18.226 21.5822 18.1634 21.6749C17.8024 22.2194 17.1837 22.5762 16.4928 22.5762C15.8018 22.5762 15.1831 22.2194 14.8118 21.6759C14.7298 21.5549 14.6854 21.4123 14.6841 21.2661C14.6828 21.1199 14.7247 20.9765 14.8046 20.854L16.0112 18.114C16.0522 18.0205 16.1196 17.9409 16.2051 17.885C16.2907 17.8292 16.3906 17.7994 16.4928 17.7994C16.5949 17.7994 16.6948 17.8292 16.7804 17.885C16.8659 17.9409 16.9333 18.0205 16.9744 18.114L18.2149 20.9314L18.2366 20.9829L18.2603 21.0355H18.2562Z" fill="url(#paint21_linear_66_70)"/>
</g>
<g filter="url(#filter14_i_66_70)">
<path d="M19.4359 13.2949C14.2755 12.4245 10.3506 9.2318 10.3506 4.20961C10.3506 2.9618 11.3612 1.95117 12.5987 1.95117H18.5903C24.2828 1.95117 28.9028 6.57117 28.9028 12.2637V16.0999C28.4143 15.4887 27.7273 15.0677 26.9609 14.9099L26.9816 14.3375C26.9874 14.2142 26.9469 14.0932 26.8681 13.9982C26.7893 13.9032 26.6779 13.841 26.5556 13.824C25.6791 13.7074 24.5179 13.6476 23.3 13.5847C21.98 13.5166 20.594 13.4445 19.4359 13.2949Z" fill="#F4DDA0"/>
<path d="M19.4359 13.2949C14.2755 12.4245 10.3506 9.2318 10.3506 4.20961C10.3506 2.9618 11.3612 1.95117 12.5987 1.95117H18.5903C24.2828 1.95117 28.9028 6.57117 28.9028 12.2637V16.0999C28.4143 15.4887 27.7273 15.0677 26.9609 14.9099L26.9816 14.3375C26.9874 14.2142 26.9469 14.0932 26.8681 13.9982C26.7893 13.9032 26.6779 13.841 26.5556 13.824C25.6791 13.7074 24.5179 13.6476 23.3 13.5847C21.98 13.5166 20.594 13.4445 19.4359 13.2949Z" fill="url(#paint22_radial_66_70)"/>
</g>
<path d="M21.4448 16.5C22.1591 16.5002 22.8529 16.7392 23.4157 17.1791C23.9786 17.619 24.3782 18.2344 24.5509 18.9276C24.5742 19.0206 24.5759 19.1177 24.5559 19.2115C24.5359 19.3052 24.4947 19.3932 24.4355 19.4686C24.3763 19.544 24.3006 19.6049 24.2143 19.6466C24.128 19.6883 24.0332 19.7098 23.9373 19.7092H18.8223C18.7447 19.7096 18.6679 19.6929 18.5974 19.6602C18.5269 19.6274 18.4646 19.5796 18.4147 19.52C18.3649 19.4604 18.3288 19.3906 18.3091 19.3154C18.2893 19.2403 18.2864 19.1617 18.3005 19.0853C18.4445 18.3571 18.8365 17.7013 19.4099 17.2299C19.9833 16.7584 20.7025 16.5005 21.4448 16.5Z" fill="white"/>
<path d="M20.9703 17.1229C21.285 17.1232 21.5953 17.196 21.8772 17.3357C22.1592 17.4754 22.4051 17.6783 22.5958 17.9285C22.7866 18.1787 22.9171 18.4696 22.9771 18.7784C23.0372 19.0873 23.0252 19.4058 22.9421 19.7093H18.9893C18.9408 19.5336 18.9158 19.3522 18.915 19.17C18.915 18.0438 19.8359 17.1229 20.9703 17.1229Z" fill="url(#paint23_radial_66_70)"/>
<path d="M19.799 19.1689C19.799 18.5192 20.3187 17.9974 20.9705 17.9974C21.6222 17.9974 22.142 18.5182 22.142 19.1689C22.142 19.3649 22.0956 19.5505 22.012 19.7093H19.9382C19.8441 19.5449 19.7967 19.3583 19.799 19.1689Z" fill="black"/>
<g filter="url(#filter15_f_66_70)">
<path d="M20.8199 17.556C20.9653 17.7509 20.6611 17.9891 20.3146 18.2469C19.9681 18.5068 19.7113 18.6883 19.5649 18.4944C19.4195 18.2985 19.5824 17.9304 19.9289 17.6715C20.2754 17.4127 20.6745 17.3611 20.8199 17.556Z" fill="#C7A7A3"/>
<path d="M20.8199 17.556C20.9653 17.7509 20.6611 17.9891 20.3146 18.2469C19.9681 18.5068 19.7113 18.6883 19.5649 18.4944C19.4195 18.2985 19.5824 17.9304 19.9289 17.6715C20.2754 17.4127 20.6745 17.3611 20.8199 17.556Z" fill="url(#paint24_radial_66_70)"/>
</g>
<g filter="url(#filter16_f_66_70)">
<path d="M22.7926 18.8998C22.7318 18.4992 22.5464 18.1279 22.2626 17.8386L21.6665 18.4935L21.9346 19.0163L22.7926 18.8998Z" fill="url(#paint25_linear_66_70)"/>
</g>
<path d="M11.5644 16.5227C10.8513 16.5229 10.1587 16.7616 9.59679 17.2007C9.0349 17.6398 8.63596 18.2542 8.46343 18.9461C8.44031 19.0389 8.43872 19.1357 8.45876 19.2292C8.4788 19.3227 8.51994 19.4103 8.57905 19.4854C8.63816 19.5606 8.71367 19.6212 8.7998 19.6627C8.88593 19.7041 8.9804 19.7254 9.07599 19.7247H14.1817C14.2591 19.7251 14.3357 19.7084 14.4059 19.6758C14.4761 19.6432 14.5382 19.5955 14.5879 19.5361C14.6375 19.4767 14.6735 19.4071 14.6931 19.3322C14.7127 19.2573 14.7156 19.179 14.7015 19.1029C14.5567 18.3768 14.1652 17.7232 13.5934 17.2529C13.0217 16.7826 12.3048 16.5246 11.5644 16.5227Z" fill="white"/>
<path d="M12.0377 17.1445C11.7237 17.1447 11.414 17.2172 11.1327 17.3566C10.8513 17.4959 10.6058 17.6982 10.4154 17.9478C10.2249 18.1974 10.0946 18.4876 10.0345 18.7958C9.97447 19.104 9.98629 19.4219 10.0691 19.7247H14.0146C14.063 19.5493 14.088 19.3683 14.0889 19.1864C14.0851 18.6443 13.8673 18.1255 13.483 17.7431C13.0986 17.3608 12.5788 17.1456 12.0367 17.1445" fill="url(#paint26_radial_66_70)"/>
<path d="M13.207 19.1864C13.2076 19.0327 13.1777 18.8804 13.1191 18.7382C13.0606 18.5961 12.9744 18.467 12.8657 18.3583C12.757 18.2496 12.6279 18.1635 12.4858 18.1049C12.3436 18.0463 12.1913 18.0164 12.0376 18.017C11.8839 18.0164 11.7316 18.0463 11.5894 18.1049C11.4473 18.1635 11.3182 18.2496 11.2095 18.3583C11.1008 18.467 11.0147 18.5961 10.9561 18.7382C10.8975 18.8804 10.8676 19.0327 10.8682 19.1864C10.8682 19.3823 10.9146 19.568 10.9981 19.7247H13.0678C13.1514 19.5669 13.207 19.3813 13.207 19.1864Z" fill="black"/>
<g filter="url(#filter17_f_66_70)">
<path d="M13.9032 18.9472C13.9032 18.2872 13.3669 17.8469 13.2215 17.7139L12.5615 18.3522L12.9678 19.1793L13.9032 18.9472Z" fill="url(#paint27_linear_66_70)"/>
</g>
<g filter="url(#filter18_f_66_70)">
<path d="M11.633 18.4161C12.0684 18.1854 12.3266 17.8198 12.2098 17.5993C12.093 17.3789 11.6455 17.3872 11.2101 17.6178C10.7748 17.8484 10.5165 18.2141 10.6333 18.4345C10.7501 18.655 11.1977 18.6467 11.633 18.4161Z" fill="#C7A7A3" fill-opacity="0.9"/>
<path d="M11.633 18.4161C12.0684 18.1854 12.3266 17.8198 12.2098 17.5993C12.093 17.3789 11.6455 17.3872 11.2101 17.6178C10.7748 17.8484 10.5165 18.2141 10.6333 18.4345C10.7501 18.655 11.1977 18.6467 11.633 18.4161Z" fill="url(#paint28_radial_66_70)"/>
</g>
<g filter="url(#filter19_f_66_70)">
<path d="M27.7963 12.5865C16.6134 13.4455 11.9985 8.03864 11.9985 2.85352H18.3974C25.9163 2.85352 27.7963 9.34214 27.7963 12.5865Z" fill="url(#paint29_radial_66_70)"/>
</g>
<defs>
<filter id="filter0_i_66_70" x="3.33911" y="14.8418" width="6.80313" height="6.70312" filterUnits="userSpaceOnUse" color-interpolation-filters="sRGB">
<feFlood flood-opacity="0" result="BackgroundImageFix"/>
<feBlend mode="normal" in="SourceGraphic" in2="BackgroundImageFix" result="shape"/>
<feColorMatrix in="SourceAlpha" type="matrix" values="0 0 0 0 0 0 0 0 0 0 0 0 0 0 0 0 0 0 127 0" result="hardAlpha"/>
<feOffset dx="0.1"/>
<feGaussianBlur stdDeviation="0.1"/>
<feComposite in2="hardAlpha" operator="arithmetic" k2="-1" k3="1"/>
<feColorMatrix type="matrix" values="0 0 0 0 0.870588 0 0 0 0 0.643137 0 0 0 0 0.533333 0 0 0 1 0"/>
<feBlend mode="normal" in2="shape" result="effect1_innerShadow_66_70"/>
</filter>
<filter id="filter1_i_66_70" x="22.9329" y="14.7168" width="6.80313" height="6.82812" filterUnits="userSpaceOnUse" color-interpolation-filters="sRGB">
<feFlood flood-opacity="0" result="BackgroundImageFix"/>
<feBlend mode="normal" in="SourceGraphic" in2="BackgroundImageFix" result="shape"/>
<feColorMatrix in="SourceAlpha" type="matrix" values="0 0 0 0 0 0 0 0 0 0 0 0 0 0 0 0 0 0 127 0" result="hardAlpha"/>
<feOffset dx="0.1" dy="-0.125"/>
<feGaussianBlur stdDeviation="0.125"/>
<feComposite in2="hardAlpha" operator="arithmetic" k2="-1" k3="1"/>
<feColorMatrix type="matrix" values="0 0 0 0 0.847059 0 0 0 0 0.596078 0 0 0 0 0.47451 0 0 0 1 0"/>
<feBlend mode="normal" in2="shape" result="effect1_innerShadow_66_70"/>
</filter>
<filter id="filter2_f_66_70" x="23.9875" y="15.8489" width="4.70605" height="4.68689" filterUnits="userSpaceOnUse" color-interpolation-filters="sRGB">
<feFlood flood-opacity="0" result="BackgroundImageFix"/>
<feBlend mode="normal" in="SourceGraphic" in2="BackgroundImageFix" result="shape"/>
<feGaussianBlur stdDeviation="0.125" result="effect1_foregroundBlur_66_70"/>
</filter>
<filter id="filter3_f_66_70" x="4.3938" y="15.8489" width="4.70605" height="4.68689" filterUnits="userSpaceOnUse" color-interpolation-filters="sRGB">
<feFlood flood-opacity="0" result="BackgroundImageFix"/>
<feBlend mode="normal" in="SourceGraphic" in2="BackgroundImageFix" result="shape"/>
<feGaussianBlur stdDeviation="0.125" result="effect1_foregroundBlur_66_70"/>
</filter>
<filter id="filter4_i_66_70" x="22.6946" y="21.3719" width="8.62529" height="9.45603" filterUnits="userSpaceOnUse" color-interpolation-filters="sRGB">
<feFlood flood-opacity="0" result="BackgroundImageFix"/>
<feBlend mode="normal" in="SourceGraphic" in2="BackgroundImageFix" result="shape"/>
<feColorMatrix in="SourceAlpha" type="matrix" values="0 0 0 0 0 0 0 0 0 0 0 0 0 0 0 0 0 0 127 0" result="hardAlpha"/>
<feOffset dx="0.325" dy="-0.4"/>
<feGaussianBlur stdDeviation="0.375"/>
<feComposite in2="hardAlpha" operator="arithmetic" k2="-1" k3="1"/>
<feColorMatrix type="matrix" values="0 0 0 0 0.807843 0 0 0 0 0.529412 0 0 0 0 0.490196 0 0 0 1 0"/>
<feBlend mode="normal" in2="shape" result="effect1_innerShadow_66_70"/>
</filter>
<filter id="filter5_i_66_70" x="1.92529" y="21.3969" width="8.42529" height="9.43103" filterUnits="userSpaceOnUse" color-interpolation-filters="sRGB">
<feFlood flood-opacity="0" result="BackgroundImageFix"/>
<feBlend mode="normal" in="SourceGraphic" in2="BackgroundImageFix" result="shape"/>
<feColorMatrix in="SourceAlpha" type="matrix" values="0 0 0 0 0 0 0 0 0 0 0 0 0 0 0 0 0 0 127 0" result="hardAlpha"/>
<feOffset dx="-0.125" dy="-0.375"/>
<feGaussianBlur stdDeviation="0.25"/>
<feComposite in2="hardAlpha" operator="arithmetic" k2="-1" k3="1"/>
<feColorMatrix type="matrix" values="0 0 0 0 0.803922 0 0 0 0 0.545098 0 0 0 0 0.517647 0 0 0 1 0"/>
<feBlend mode="normal" in2="shape" result="effect1_innerShadow_66_70"/>
</filter>
<filter id="filter6_i_66_70" x="6.01318" y="7.99121" width="20.968" height="23.035" filterUnits="userSpaceOnUse" color-interpolation-filters="sRGB">
<feFlood flood-opacity="0" result="BackgroundImageFix"/>
<feBlend mode="normal" in="SourceGraphic" in2="BackgroundImageFix" result="shape"/>
<feColorMatrix in="SourceAlpha" type="matrix" values="0 0 0 0 0 0 0 0 0 0 0 0 0 0 0 0 0 0 127 0" result="hardAlpha"/>
<feOffset dy="0.2"/>
<feGaussianBlur stdDeviation="0.15"/>
<feComposite in2="hardAlpha" operator="arithmetic" k2="-1" k3="1"/>
<feColorMatrix type="matrix" values="0 0 0 0 0.760784 0 0 0 0 0.498039 0 0 0 0 0.447059 0 0 0 1 0"/>
<feBlend mode="normal" in2="shape" result="effect1_innerShadow_66_70"/>
</filter>
<filter id="filter7_i_66_70" x="9.62378" y="13.7828" width="3.15615" height="0.911157" filterUnits="userSpaceOnUse" color-interpolation-filters="sRGB">
<feFlood flood-opacity="0" result="BackgroundImageFix"/>
<feBlend mode="normal" in="SourceGraphic" in2="BackgroundImageFix" result="shape"/>
<feColorMatrix in="SourceAlpha" type="matrix" values="0 0 0 0 0 0 0 0 0 0 0 0 0 0 0 0 0 0 127 0" result="hardAlpha"/>
<feOffset dx="0.1" dy="-0.1"/>
<feGaussianBlur stdDeviation="0.05"/>
<feComposite in2="hardAlpha" operator="arithmetic" k2="-1" k3="1"/>
<feColorMatrix type="matrix" values="0 0 0 0 0.466667 0 0 0 0 0.262745 0 0 0 0 0.164706 0 0 0 1 0"/>
<feBlend mode="normal" in2="shape" result="effect1_innerShadow_66_70"/>
</filter>
<filter id="filter8_f_66_70" x="9.52393" y="13.7828" width="3.25586" height="1.01111" filterUnits="userSpaceOnUse" color-interpolation-filters="sRGB">
<feFlood flood-opacity="0" result="BackgroundImageFix"/>
<feBlend mode="normal" in="SourceGraphic" in2="BackgroundImageFix" result="shape"/>
<feGaussianBlur stdDeviation="0.125" result="effect1_foregroundBlur_66_70"/>
</filter>
<filter id="filter9_i_66_70" x="20.2551" y="13.7627" width="3.19717" height="0.950952" filterUnits="userSpaceOnUse" color-interpolation-filters="sRGB">
<feFlood flood-opacity="0" result="BackgroundImageFix"/>
<feBlend mode="normal" in="SourceGraphic" in2="BackgroundImageFix" result="shape"/>
<feColorMatrix in="SourceAlpha" type="matrix" values="0 0 0 0 0 0 0 0 0 0 0 0 0 0 0 0 0 0 127 0" result="hardAlpha"/>
<feOffset dx="0.1" dy="-0.1"/>
<feGaussianBlur stdDeviation="0.05"/>
<feComposite in2="hardAlpha" operator="arithmetic" k2="-1" k3="1"/>
<feColorMatrix type="matrix" values="0 0 0 0 0.466667 0 0 0 0 0.262745 0 0 0 0 0.164706 0 0 0 1 0"/>
<feBlend mode="normal" in2="shape" result="effect1_innerShadow_66_70"/>
</filter>
<filter id="filter10_f_66_70" x="20.155" y="13.7627" width="3.29712" height="1.0509" filterUnits="userSpaceOnUse" color-interpolation-filters="sRGB">
<feFlood flood-opacity="0" result="BackgroundImageFix"/>
<feBlend mode="normal" in="SourceGraphic" in2="BackgroundImageFix" result="shape"/>
<feGaussianBlur stdDeviation="0.125" result="effect1_foregroundBlur_66_70"/>
</filter>
<filter id="filter11_i_66_70" x="3.89258" y="3.76367" width="7.53052" height="12.2311" filterUnits="userSpaceOnUse" color-interpolation-filters="sRGB">
<feFlood flood-opacity="0" result="BackgroundImageFix"/>
<feBlend mode="normal" in="SourceGraphic" in2="BackgroundImageFix" result="shape"/>
<feColorMatrix in="SourceAlpha" type="matrix" values="0 0 0 0 0 0 0 0 0 0 0 0 0 0 0 0 0 0 127 0" result="hardAlpha"/>
<feOffset dx="-0.25" dy="-0.25"/>
<feGaussianBlur stdDeviation="0.25"/>
<feComposite in2="hardAlpha" operator="arithmetic" k2="-1" k3="1"/>
<feColorMatrix type="matrix" values="0 0 0 0 0.823529 0 0 0 0 0.635294 0 0 0 0 0.478431 0 0 0 1 0"/>
<feBlend mode="normal" in2="shape" result="effect1_innerShadow_66_70"/>
</filter>
<filter id="filter12_f_66_70" x="14.1772" y="17.7268" width="4.07861" height="5.15869" filterUnits="userSpaceOnUse" color-interpolation-filters="sRGB">
<feFlood flood-opacity="0" result="BackgroundImageFix"/>
<feBlend mode="normal" in="SourceGraphic" in2="BackgroundImageFix" result="shape"/>
<feGaussianBlur stdDeviation="0.1875" result="effect1_foregroundBlur_66_70"/>
</filter>
<filter id="filter13_f_66_70" x="14.5591" y="17.6744" width="3.85669" height="5.02673" filterUnits="userSpaceOnUse" color-interpolation-filters="sRGB">
<feFlood flood-opacity="0" result="BackgroundImageFix"/>
<feBlend mode="normal" in="SourceGraphic" in2="BackgroundImageFix" result="shape"/>
<feGaussianBlur stdDeviation="0.0625" result="effect1_foregroundBlur_66_70"/>
</filter>
<filter id="filter14_i_66_70" x="10.3506" y="1.57617" width="18.9272" height="14.5238" filterUnits="userSpaceOnUse" color-interpolation-filters="sRGB">
<feFlood flood-opacity="0" result="BackgroundImageFix"/>
<feBlend mode="normal" in="SourceGraphic" in2="BackgroundImageFix" result="shape"/>
<feColorMatrix in="SourceAlpha" type="matrix" values="0 0 0 0 0 0 0 0 0 0 0 0 0 0 0 0 0 0 127 0" result="hardAlpha"/>
<feOffset dx="0.375" dy="-0.375"/>
<feGaussianBlur stdDeviation="0.3125"/>
<feComposite in2="hardAlpha" operator="arithmetic" k2="-1" k3="1"/>
<feColorMatrix type="matrix" values="0 0 0 0 0.913725 0 0 0 0 0.764706 0 0 0 0 0.627451 0 0 0 1 0"/>
<feBlend mode="normal" in2="shape" result="effect1_innerShadow_66_70"/>
</filter>
<filter id="filter15_f_66_70" x="19.4617" y="17.3879" width="1.44546" height="1.23782" filterUnits="userSpaceOnUse" color-interpolation-filters="sRGB">
<feFlood flood-opacity="0" result="BackgroundImageFix"/>
<feBlend mode="normal" in="SourceGraphic" in2="BackgroundImageFix" result="shape"/>
<feGaussianBlur stdDeviation="0.025" result="effect1_foregroundBlur_66_70"/>
</filter>
<filter id="filter16_f_66_70" x="21.5665" y="17.7386" width="1.32622" height="1.37773" filterUnits="userSpaceOnUse" color-interpolation-filters="sRGB">
<feFlood flood-opacity="0" result="BackgroundImageFix"/>
<feBlend mode="normal" in="SourceGraphic" in2="BackgroundImageFix" result="shape"/>
<feGaussianBlur stdDeviation="0.05" result="effect1_foregroundBlur_66_70"/>
</filter>
<filter id="filter17_f_66_70" x="12.4615" y="17.6139" width="1.54155" height="1.66545" filterUnits="userSpaceOnUse" color-interpolation-filters="sRGB">
<feFlood flood-opacity="0" result="BackgroundImageFix"/>
<feBlend mode="normal" in="SourceGraphic" in2="BackgroundImageFix" result="shape"/>
<feGaussianBlur stdDeviation="0.05" result="effect1_foregroundBlur_66_70"/>
</filter>
<filter id="filter18_f_66_70" x="10.5552" y="17.3892" width="1.73257" height="1.2554" filterUnits="userSpaceOnUse" color-interpolation-filters="sRGB">
<feFlood flood-opacity="0" result="BackgroundImageFix"/>
<feBlend mode="normal" in="SourceGraphic" in2="BackgroundImageFix" result="shape"/>
<feGaussianBlur stdDeviation="0.025" result="effect1_foregroundBlur_66_70"/>
</filter>
<filter id="filter19_f_66_70" x="10.9985" y="1.85352" width="17.7976" height="11.8235" filterUnits="userSpaceOnUse" color-interpolation-filters="sRGB">
<feFlood flood-opacity="0" result="BackgroundImageFix"/>
<feBlend mode="normal" in="SourceGraphic" in2="BackgroundImageFix" result="shape"/>
<feGaussianBlur stdDeviation="0.5" result="effect1_foregroundBlur_66_70"/>
</filter>
<radialGradient id="paint0_radial_66_70" cx="0" cy="0" r="1" gradientUnits="userSpaceOnUse" gradientTransform="translate(25.7008 19.7075) rotate(-46.534) scale(5.10625 4.09552)">
<stop offset="0.573" stop-color="#E2A68D"/>
<stop offset="1" stop-color="#F6C5A4"/>
</radialGradient>
<radialGradient id="paint1_radial_66_70" cx="0" cy="0" r="1" gradientUnits="userSpaceOnUse" gradientTransform="translate(25.54 18.1933) scale(2.98096)">
<stop offset="0.733" stop-color="#E2A27D" stop-opacity="0"/>
<stop offset="1" stop-color="#E2A27D"/>
</radialGradient>
<linearGradient id="paint2_linear_66_70" x1="4.78606" y1="18.1933" x2="6.3979" y2="18.1933" gradientUnits="userSpaceOnUse">
<stop stop-color="#BC7B67"/>
<stop offset="1" stop-color="#B3745D"/>
</linearGradient>
<linearGradient id="paint3_linear_66_70" x1="28.7944" y1="24.7511" x2="27.6992" y2="26.4434" gradientUnits="userSpaceOnUse">
<stop stop-color="#FFE7B0"/>
<stop offset="1" stop-color="#FFE7B0" stop-opacity="0"/>
</linearGradient>
<radialGradient id="paint4_radial_66_70" cx="0" cy="0" r="1" gradientUnits="userSpaceOnUse" gradientTransform="translate(8.7657 26.2999) rotate(152.79) scale(2.88418 4.74399)">
<stop stop-color="#BC7975"/>
<stop offset="1" stop-color="#BC7975" stop-opacity="0"/>
</radialGradient>
<linearGradient id="paint5_linear_66_70" x1="4.10946" y1="24.4129" x2="5.14072" y2="25.8948" gradientUnits="userSpaceOnUse">
<stop stop-color="#E8B283"/>
<stop offset="1" stop-color="#E8B283" stop-opacity="0"/>
</linearGradient>
<radialGradient id="paint6_radial_66_70" cx="0" cy="0" r="1" gradientUnits="userSpaceOnUse" gradientTransform="translate(21.7591 17.4308) rotate(121.935) scale(13.8095 14.4631)">
<stop offset="0.103" stop-color="#FFC69C"/>
<stop offset="1" stop-color="#CC9581"/>
</radialGradient>
<radialGradient id="paint7_radial_66_70" cx="0" cy="0" r="1" gradientUnits="userSpaceOnUse" gradientTransform="translate(19.7876 15.3399) rotate(101.168) scale(17.0331 19.5432)">
<stop offset="0.63" stop-color="#B36D8B" stop-opacity="0"/>
<stop offset="1" stop-color="#B36D8B"/>
</radialGradient>
<linearGradient id="paint8_linear_66_70" x1="5.91728" y1="19.1916" x2="8.24996" y2="19.1916" gradientUnits="userSpaceOnUse">
<stop stop-color="#D99E80"/>
<stop offset="1" stop-color="#D99E80" stop-opacity="0"/>
</linearGradient>
<radialGradient id="paint9_radial_66_70" cx="0" cy="0" r="1" gradientUnits="userSpaceOnUse" gradientTransform="translate(26.9806 19.4082) rotate(180) scale(2.23601 12.3648)">
<stop stop-color="#F3BF99"/>
<stop offset="1" stop-color="#F3BF99" stop-opacity="0"/>
</radialGradient>
<radialGradient id="paint10_radial_66_70" cx="0" cy="0" r="1" gradientUnits="userSpaceOnUse" gradientTransform="translate(21.6944 17.8531) rotate(-90) scale(2.9538 3.66791)">
<stop offset="0.297" stop-color="#DE9F8C"/>
<stop offset="1" stop-color="#DE9F8C" stop-opacity="0"/>
</radialGradient>
<radialGradient id="paint11_radial_66_70" cx="0" cy="0" r="1" gradientUnits="userSpaceOnUse" gradientTransform="translate(12.3461 17.7551) rotate(-90) scale(3.01872 3.20279)">
<stop offset="0.146" stop-color="#C1837A"/>
<stop offset="1" stop-color="#C1837A" stop-opacity="0"/>
</radialGradient>
<linearGradient id="paint12_linear_66_70" x1="12.4049" y1="14.4189" x2="9.67618" y2="14.4189" gradientUnits="userSpaceOnUse">
<stop stop-color="#A36F45"/>
<stop offset="1" stop-color="#A36F45" stop-opacity="0"/>
</linearGradient>
<linearGradient id="paint13_linear_66_70" x1="23.0772" y1="14.4385" x2="20.3032" y2="14.4385" gradientUnits="userSpaceOnUse">
<stop stop-color="#A36F45"/>
<stop offset="1" stop-color="#A36F45" stop-opacity="0"/>
</linearGradient>
<radialGradient id="paint14_radial_66_70" cx="0" cy="0" r="1" gradientUnits="userSpaceOnUse" gradientTransform="translate(10.1351 10.5867) rotate(-154.722) scale(5.13203 8.56578)">
<stop stop-color="#ECC69A"/>
<stop offset="1" stop-color="#DFCA91"/>
</radialGradient>
<radialGradient id="paint15_radial_66_70" cx="0" cy="0" r="1" gradientUnits="userSpaceOnUse" gradientTransform="translate(10.3949 9.49107) rotate(120.316) scale(7.5337 5.55287)">
<stop offset="0.534" stop-color="#EFD59C"/>
<stop offset="1" stop-color="#EFD59C" stop-opacity="0"/>
</radialGradient>
<radialGradient id="paint16_radial_66_70" cx="0" cy="0" r="1" gradientUnits="userSpaceOnUse" gradientTransform="translate(9.10495 9.68555) rotate(108.722) scale(4.11727 2.3317)">
<stop stop-color="#FEE1B2"/>
<stop offset="1" stop-color="#FEE1B2" stop-opacity="0"/>
</radialGradient>
<radialGradient id="paint17_radial_66_70" cx="0" cy="0" r="1" gradientUnits="userSpaceOnUse" gradientTransform="translate(13.2119 6.25225) rotate(153.072) scale(4.55433 6.05298)">
<stop offset="0.267" stop-color="#D4C191"/>
<stop offset="1" stop-color="#D4C191" stop-opacity="0"/>
</radialGradient>
<radialGradient id="paint18_radial_66_70" cx="0" cy="0" r="1" gradientUnits="userSpaceOnUse" gradientTransform="translate(5.93902 9.00595) rotate(36.7593) scale(5.9075 10.7665)">
<stop offset="0.595" stop-color="#D7AC8B" stop-opacity="0"/>
<stop offset="1" stop-color="#D7AC8B"/>
</radialGradient>
<radialGradient id="paint19_radial_66_70" cx="0" cy="0" r="1" gradientUnits="userSpaceOnUse" gradientTransform="translate(18.0912 21.1304) rotate(-103.678) scale(3.77497 1.90629)">
<stop stop-color="#FBC6A6"/>
<stop offset="1" stop-color="#FBC6A6" stop-opacity="0"/>
</radialGradient>
<linearGradient id="paint20_linear_66_70" x1="14.52" y1="20.6437" x2="15.9648" y2="20.7086" gradientUnits="userSpaceOnUse">
<stop stop-color="#D09676"/>
<stop offset="1" stop-color="#D09676" stop-opacity="0"/>
</linearGradient>
<linearGradient id="paint21_linear_66_70" x1="16.3061" y1="22.8835" x2="16.3061" y2="21.0665" gradientUnits="userSpaceOnUse">
<stop stop-color="#C37C82"/>
<stop offset="1" stop-color="#C37C82" stop-opacity="0"/>
</linearGradient>
<radialGradient id="paint22_radial_66_70" cx="0" cy="0" r="1" gradientUnits="userSpaceOnUse" gradientTransform="translate(26.1846 4.72177) rotate(124.181) scale(10.44 15.4779)">
<stop stop-color="#FFFFC2"/>
<stop offset="1" stop-color="#FFFFC2" stop-opacity="0"/>
</radialGradient>
<radialGradient id="paint23_radial_66_70" cx="0" cy="0" r="1" gradientUnits="userSpaceOnUse" gradientTransform="translate(20.9652 18.2171) rotate(90) scale(1.86019 2.95884)">
<stop offset="0.802" stop-color="#925C51"/>
<stop offset="1" stop-color="#85534D"/>
</radialGradient>
<radialGradient id="paint24_radial_66_70" cx="0" cy="0" r="1" gradientUnits="userSpaceOnUse" gradientTransform="translate(20.4425 18.4099) rotate(-127.812) scale(0.867328 1.19412)">
<stop offset="0.766" stop-color="#FFE6E2" stop-opacity="0"/>
<stop offset="0.966" stop-color="#FFE6E2"/>
</radialGradient>
<linearGradient id="paint25_linear_66_70" x1="22.7493" y1="18.3408" x2="22.0295" y2="18.7832" gradientUnits="userSpaceOnUse">
<stop stop-color="#B4948D"/>
<stop offset="1" stop-color="#B4948D" stop-opacity="0"/>
</linearGradient>
<radialGradient id="paint26_radial_66_70" cx="0" cy="0" r="1" gradientUnits="userSpaceOnUse" gradientTransform="translate(12.0418 18.2356) rotate(90) scale(1.85668 2.95326)">
<stop offset="0.802" stop-color="#925C51"/>
<stop offset="1" stop-color="#85534D"/>
</radialGradient>
<linearGradient id="paint27_linear_66_70" x1="13.7444" y1="18.3594" x2="13.0266" y2="18.8018" gradientUnits="userSpaceOnUse">
<stop stop-color="#B4948D"/>
<stop offset="1" stop-color="#B4948D" stop-opacity="0"/>
</linearGradient>
<radialGradient id="paint28_radial_66_70" cx="0" cy="0" r="1" gradientUnits="userSpaceOnUse" gradientTransform="translate(11.729 18.6698) rotate(-118.811) scale(1.13078 1.35924)">
<stop offset="0.766" stop-color="#FFE6E2" stop-opacity="0"/>
<stop offset="0.966" stop-color="#FFE6E2"/>
</radialGradient>
<radialGradient id="paint29_radial_66_70" cx="0" cy="0" r="1" gradientUnits="userSpaceOnUse" gradientTransform="translate(18.9311 6.65348) rotate(23.234) scale(16.3933 9.01499)">
<stop stop-color="#FFFFC9"/>
<stop offset="1" stop-color="#FFFFC9" stop-opacity="0"/>
</radialGradient>
</defs>
</svg>
